<?xml version="1.0" encoding="UTF-8" standalone="no"?>
<svg
        version="1.1"
        width="279.66962"
        height="349.64737"
        style="clip-rule:evenodd;fill-rule:evenodd;image-rendering:optimizeQuality;shape-rendering:geometricPrecision;text-rendering:geometricPrecision"
        id="svg10"
        sodipodi:docname="icon-green.svg"
        inkscape:version="1.2.2 (b0a8486541, 2022-12-01)"
        xmlns:inkscape="http://www.inkscape.org/namespaces/inkscape"
        xmlns:sodipodi="http://sodipodi.sourceforge.net/DTD/sodipodi-0.dtd"
        xmlns="http://www.w3.org/2000/svg"
>
    <defs
            id="defs14"/>
    <sodipodi:namedview
            id="namedview12"
            pagecolor="#ffffff"
            bordercolor="#000000"
            borderopacity="0.25"
            inkscape:showpageshadow="2"
            inkscape:pageopacity="0.0"
            inkscape:pagecheckerboard="0"
            inkscape:deskcolor="#d1d1d1"
            showgrid="false"
            inkscape:zoom="1.984375"
            inkscape:cx="68.283465"
            inkscape:cy="169.32283"
            inkscape:window-width="1920"
            inkscape:window-height="1011"
            inkscape:window-x="0"
            inkscape:window-y="0"
            inkscape:window-maximized="1"
            inkscape:current-layer="svg10"/>
    <g
            id="g1257"
            transform="matrix(0.91322306,0,0,0.91322306,-35.504024,-1.7226186)"
            style="fill:#779556;fill-opacity:1">
        <g
                id="g4"
                transform="matrix(1.0633482,0,0,1.0633482,1.1307125,-23.035902)"
                style="fill:#779556;fill-opacity:1">
            <path
                    style="opacity:0.993;fill:#779556;fill-opacity:1"
                    fill="#000000"
                    d="m 52.5,23.5 c 44.0013,-0.1667 88.001,0 132,0.5 53.877,7.8951 92.377,36.3951 115.5,85.5 4.548,10.976 7.881,22.31 10,34 1.467,55.974 1.967,111.974 1.5,168 -80,0 -160,0 -240,0 -2.9912,-26.507 6.3421,-47.34 28,-62.5 18.314,-8.823 36.314,-18.156 54,-28 6.654,-5.32 10.821,-12.153 12.5,-20.5 0.667,-14.667 0.667,-29.333 0,-44 -7.671,3.331 -14.671,7.664 -21,13 -4.116,9.683 -7.45,19.683 -10,30 -2.047,5.043 -5.213,9.21 -9.5,12.5 -5.251,2.528 -10.584,4.861 -16,7 -5,0.667 -10,0.667 -15,0 -10.6667,-4.667 -21.3333,-9.333 -32,-14 -7.2316,-2.899 -12.0649,-8.066 -14.5,-15.5 -0.6667,-39 -0.6667,-78 0,-117 C 51.1319,67.7029 54.6319,63.2029 58.5,59 55.1361,51.772 51.6361,44.6053 48,37.5 46.3085,31.6102 47.8085,26.9436 52.5,23.5 Z m 29,73 c 14.1523,-1.3485 20.319,4.985 18.5,19 -5.8654,9.746 -13.6987,11.58 -23.5,5.5 -4.6956,-6.131 -5.1956,-12.631 -1.5,-19.5 1.9651,-2.0503 4.1318,-3.717 6.5,-5 z"
                    id="path2"/>
        </g>
        <g
                id="g8"
                transform="matrix(1.0633482,0,0,1.0633482,-11.6313,-23.035902)"
                style="fill:#779556;fill-opacity:1">
            <path
                    style="opacity:0.998;fill:#779556;fill-opacity:1"
                    fill="#000000"
                    d="m 328.5,383.5 c -91.333,0 -182.667,0 -274,0 -2.6393,-1.809 -4.8059,-4.142 -6.5,-7 -0.6667,-11.333 -0.6667,-22.667 0,-34 1.5,-2.833 3.6667,-5 6.5,-6.5 91.333,-0.667 182.667,-0.667 274,0 2.833,1.5 5,3.667 6.5,6.5 0.667,11.333 0.667,22.667 0,34 -1.694,2.858 -3.861,5.191 -6.5,7 z"
                    id="path6"/>
        </g>
        <path
                style="fill:#779556;fill-opacity:1;stroke-width:0.535862"
                d="m 76.884689,302.90125 c -0.692255,-9.90864 1.138865,-21.64639 4.730419,-30.32265 3.283484,-7.93207 7.296795,-13.95409 13.58956,-20.3913 7.071682,-7.234 10.562702,-9.55109 26.053922,-17.29282 16.32654,-8.15916 22.99308,-11.63103 35.513,-18.49486 7.08259,-3.88291 9.1931,-5.32433 11.5961,-7.91986 3.81538,-4.12105 6.37115,-8.38331 8.21106,-13.69352 l 1.48354,-4.28175 0.0296,-23.39918 c 0.0171,-12.86955 -0.12611,-23.55491 -0.31649,-23.74526 -0.9847,-0.98485 -19.98292,10.39847 -22.32607,13.3773 -1.53584,1.95253 -6.14189,14.46355 -9.12551,24.78689 -2.88401,9.97872 -4.20587,12.67175 -8.49235,17.30168 -2.60431,2.81294 -3.60614,3.42283 -10.9068,6.63975 -9.71392,4.2803 -11.92326,4.79621 -19.23048,4.49059 l -5.665,-0.23696 -18.219253,-7.95799 c -10.02059,-4.37691 -19.424942,-8.72268 -20.898559,-9.6573 -3.570378,-2.26442 -6.784447,-5.85543 -8.945248,-9.99435 l -1.771962,-3.3941 v -62.1816 -62.181602 l 3.128634,-4.345313 c 1.720746,-2.389922 4.309869,-5.670631 5.753605,-7.290468 L 63.701342,39.771421 57.760183,27.742649 C 52.177765,16.440196 51.819026,15.518292 51.819026,12.474746 c 0,-3.7843679 0.995277,-6.2024621 3.586714,-8.7141814 L 57.236317,1.9863004 127.05639,2.300337 c 75.80329,0.3409473 70.93614,0.147954 85.62794,3.3954976 7.86179,1.7378092 23.20432,6.8468034 30.81198,10.2602544 28.46001,12.769593 51.41765,33.781333 68.26441,62.478324 7.4272,12.651579 11.92712,23.755197 15.99224,39.460987 l 2.42717,9.37756 0.43874,13.93237 c 0.7956,25.26464 1.55983,87.7646 1.5611,127.66877 l 10e-4,39.25178 H 204.71546 77.249701 Z m 21.508869,-194.1999 c 2.064132,-0.62572 6.614412,-4.59967 8.194882,-7.15692 0.91564,-1.48152 1.13719,-2.702839 1.14728,-6.324368 0.0169,-5.979983 -0.8506,-8.635073 -3.82094,-11.697619 -2.94172,-3.033054 -6.382011,-4.20991 -12.2982,-4.206991 -3.16331,0.0016 -4.46832,0.249392 -5.931171,1.126359 -5.441664,3.262224 -7.657811,7.435288 -7.576219,14.266209 0.07271,6.08717 2.567452,10.60816 7.012983,12.70901 4.802904,2.26973 8.758151,2.65249 13.271385,1.28432 z"
                id="path305"/>
        <path
                style="fill:#779556;fill-opacity:1;stroke-width:0.535862"
                d="m 43.238672,381.35025 c -3.197235,-3.27682 -3.334671,-3.5315 -3.687175,-6.83223 -0.201377,-1.8857 -0.284686,-10.07795 -0.185108,-18.20498 l 0.181024,-14.77644 1.39858,-2.11226 c 0.769218,-1.16173 2.436562,-2.83156 3.705207,-3.71074 l 2.30663,-1.5985 H 191.9997 337.04161 l 2.30663,1.5985 c 1.26863,0.87918 2.93598,2.54901 3.70519,3.71074 l 1.39858,2.11226 0.18098,14.77644 c 0.0995,8.12703 0.0192,16.29676 -0.1797,18.15491 -0.3421,3.20351 -0.5281,3.55735 -3.59161,6.83223 l -3.23079,3.45373 H 192.09529 46.559695 Z"
                id="path1191"/>
    </g>
    <path
            style="fill:#779556;fill-opacity:1;stroke-width:0.712675"
            d="m 35.27739,271.14262 c 0,-18.76045 5.625737,-31.93249 19.015873,-44.52357 4.934615,-4.64013 7.472424,-6.27261 19.518898,-12.5557 7.615745,-3.97215 19.593995,-10.22587 26.618339,-13.89715 15.48679,-8.0942 19.75722,-11.63932 23.75122,-19.7172 l 2.67435,-5.4089 0.2062,-23.02301 c 0.16501,-18.42503 0.0227,-23.02269 -0.71268,-23.02147 -1.3874,0.002 -8.81848,4.05263 -14.71644,8.02122 -6.21623,4.18273 -7.24269,6.05575 -12.592825,22.9786 -1.858812,5.87956 -4.10906,12.14616 -5.000538,13.92576 -2.478803,4.94829 -6.917076,8.53714 -14.932912,12.07496 -6.454761,2.84883 -7.767012,3.17289 -13.917113,3.43688 l -6.790369,0.29146 -14.946205,-6.58196 c -8.220413,-3.62007 -16.729313,-7.47681 -18.908666,-8.57052 -4.356584,-2.18637 -8.369285,-6.19146 -10.616501,-10.59637 -1.430179,-2.80338 -1.456216,-3.86248 -1.456216,-59.23386 V 48.362345 l 2.053912,-2.985259 c 1.129651,-1.641892 3.491711,-4.716657 5.249021,-6.832811 L 22.969846,34.696722 17.720825,23.696808 C 11.637547,10.948612 11.143772,7.9866444 14.322125,3.3092786 l 1.850319,-2.72299043 64.96292,0.2954402 C 154.79762,1.2167317 151.05166,0.94386931 170.8295,7.4152255 193.64038,14.879 209.96871,24.578129 225.12123,39.664854 c 18.92863,18.846449 30.7291,39.057455 37.9522,65.001826 2.49768,8.97134 2.50934,9.08197 3.12679,29.67247 0.34087,11.36716 0.84965,48.64895 1.13064,82.84842 l 0.51088,62.18085 H 151.55957 35.27739 Z M 57.687793,95.932672 c 4.097946,-3.125655 5.378152,-5.761026 5.381241,-11.077563 0.0033,-5.676603 -1.793548,-9.680808 -5.457712,-12.162305 -2.110739,-1.429466 -3.697821,-1.828748 -8.028162,-2.019749 -4.72295,-0.208317 -5.706885,-0.0281 -7.874739,1.442312 -5.44098,3.690499 -7.485542,10.1261 -5.445953,17.142039 1.877418,6.458093 6.278575,9.245919 14.059734,8.905874 3.892706,-0.170116 5.17214,-0.557583 7.365591,-2.230608 z"
            id="path1259"/>
</svg>